<svg width="87" height="23" viewBox="0 0 87 23" fill="none" xmlns="http://www.w3.org/2000/svg">
<g clip-path="url(#clip0_1_1235)">
<path d="M10.6329 0.0936794C13.3926 0.0936794 16.1523 0.0274473 18.9046 0.108398C23.5703 0.25558 26.2858 3.00789 26.2637 7.46016C26.249 11.8462 23.0993 15.202 18.7353 15.305C14.8129 15.4007 10.8905 15.4154 6.97543 15.2903C5.2166 15.2388 4.64995 15.8643 4.83393 17.5201C4.9296 18.3664 4.93696 19.2421 4.82657 20.0884C4.7309 20.8023 4.50277 22.0386 4.18633 22.0827C2.95735 22.2667 1.66215 22.1195 0.418455 21.9503C0.241836 21.9282 0.0652171 21.1113 0.057858 20.6624C0.0284215 17.8439 0.0946536 15.0253 0.0210624 12.2068C-0.0157333 10.8969 0.477328 10.5142 1.73574 10.5289C7.06374 10.5804 12.3991 10.5657 17.7271 10.5289C18.4998 10.5289 19.5669 10.5216 19.979 10.0579C20.6634 9.27787 21.3772 8.06361 21.2521 7.15108C21.1417 6.34894 20.0084 5.30394 19.1327 5.06845C17.6903 4.68577 16.1007 4.84031 14.5701 4.84031C10.3459 4.84031 6.11442 4.80352 1.89028 4.90655C0.227118 4.9507 -0.111402 4.19271 0.0284215 2.79448C0.146167 1.55815 -0.508795 -0.0314257 1.80933 0.0568838C4.74562 0.17463 7.68927 0.0863203 10.6329 0.0863203V0.0936794Z" fill="#83AF82"/>
<path d="M40.9705 0.0143733C43.6051 0.0143733 46.2397 -0.0224223 48.8742 0.0217324C53.8343 0.102683 56.6528 2.77405 56.6455 7.35142C56.6455 11.8994 53.4001 15.1889 48.7786 15.2478C44.9224 15.2993 41.0588 15.3214 37.1953 15.233C35.6646 15.1962 35.0685 15.6967 35.201 17.2347C35.2967 18.3901 35.1715 19.5676 35.2304 20.723C35.2893 21.8636 34.7594 22.2684 33.6997 22.2169C33.0889 22.1874 32.4707 22.1948 31.8599 22.2169C30.7487 22.2536 30.366 21.7238 30.3881 20.642C30.4323 17.8823 30.4691 15.1227 30.3734 12.3703C30.3219 10.9353 30.7634 10.4349 32.2426 10.457C37.3866 10.5379 42.538 10.4864 47.6821 10.4864C48.1751 10.4864 48.6755 10.5306 49.1465 10.4496C50.714 10.1847 51.759 9.34575 51.7517 7.65315C51.7517 5.98998 50.817 5.01122 49.176 4.87876C47.6526 4.75365 46.1146 4.77573 44.5839 4.77573C40.4775 4.77573 36.3711 4.76837 32.2647 4.8346C30.8738 4.85668 30.3072 4.44457 30.344 2.94331C30.4249 0.0217324 30.344 0.0217324 33.2214 0.0217324C35.7971 0.0217324 38.3654 0.0217324 40.9411 0.0217324L40.9705 0.0143733Z" fill="#83AF82"/>
<path d="M87.0702 7.11225C85.8854 7.11225 84.6122 7.14904 83.3538 7.08281C83.0668 7.06809 82.6032 6.77373 82.537 6.52352C82.088 4.7794 80.7487 4.72053 79.3504 4.72053C75.8549 4.72053 72.3666 4.72053 68.8711 4.72053C68.5031 4.72053 68.1351 4.72053 67.7672 4.75733C66.5161 4.87507 65.5595 5.49324 65.6404 6.80316C65.7214 8.07629 66.6486 8.63558 67.9512 8.62823C71.8736 8.59879 75.796 8.59879 79.7184 8.62823C81.8452 8.6503 83.869 9.08449 85.4217 10.7035C87.1806 12.5286 87.7914 14.7731 87.0849 17.1501C86.349 19.6448 84.6343 21.3963 81.9703 21.8746C80.653 22.1101 79.2916 22.1617 77.9522 22.1469C74.0372 22.1028 70.1147 22.1469 66.2144 21.8379C63.4695 21.6244 61.1808 19.0119 60.7981 16.3406C60.673 15.4575 60.8423 14.8393 61.8799 14.9276C63.44 15.0675 65.3387 14.177 66.1703 16.554C66.3322 17.0176 67.5317 17.3341 68.2529 17.3488C72.1091 17.4224 75.9726 17.3929 79.8362 17.3782C81.1682 17.3782 82.4045 16.9956 82.4192 15.4133C82.4339 13.706 81.1461 13.3896 79.7331 13.3896C75.5679 13.3896 71.3952 13.4558 67.23 13.3454C63.8521 13.2571 61.1734 10.6961 60.7687 7.42133C60.3933 4.40409 62.4171 1.35005 65.4564 0.35657C65.8612 0.224105 66.288 0.0990002 66.7001 0.0990002C71.6602 0.0842819 76.6202 0.0327681 81.5803 0.128437C84.649 0.18731 87.9901 4.16124 87.0555 7.10489L87.0702 7.11225Z" fill="#83AF82"/>
</g>
<defs>
<clipPath id="clip0_1_1235">
<rect width="87" height="22.2212" fill="white"/>
</clipPath>
</defs>
</svg>
