<svg width="24" height="24" viewBox="0 0 24 24" fill="none" xmlns="http://www.w3.org/2000/svg">
<rect width="24" height="24" rx="12" fill="#FEFBE8"/>
<g clip-path="url(#clip0_134_9750)">
<path d="M11.9997 14.6667V12M11.9997 9.33334H12.0063M5.33301 9.68184V14.3182C5.33301 14.4812 5.33301 14.5628 5.35143 14.6395C5.36776 14.7075 5.3947 14.7726 5.43125 14.8322C5.47248 14.8995 5.53013 14.9571 5.64543 15.0724L8.92726 18.3543C9.04256 18.4696 9.10021 18.5272 9.16748 18.5684C9.22713 18.605 9.29216 18.6319 9.36019 18.6483C9.43691 18.6667 9.51844 18.6667 9.6815 18.6667H14.3178C14.4809 18.6667 14.5624 18.6667 14.6392 18.6483C14.7072 18.6319 14.7722 18.605 14.8319 18.5684C14.8991 18.5272 14.9568 18.4696 15.0721 18.3543L18.3539 15.0724C18.4692 14.9571 18.5269 14.8995 18.5681 14.8322C18.6047 14.7726 18.6316 14.7075 18.6479 14.6395C18.6663 14.5628 18.6663 14.4812 18.6663 14.3182V9.68184C18.6663 9.51878 18.6663 9.43725 18.6479 9.36052C18.6316 9.2925 18.6047 9.22747 18.5681 9.16782C18.5269 9.10054 18.4692 9.04289 18.3539 8.92759L15.0721 5.64576C14.9568 5.53046 14.8991 5.47281 14.8319 5.43158C14.7722 5.39503 14.7072 5.36809 14.6392 5.35176C14.5624 5.33334 14.4809 5.33334 14.3178 5.33334H9.6815C9.51844 5.33334 9.43691 5.33334 9.36019 5.35176C9.29216 5.36809 9.22713 5.39503 9.16748 5.43158C9.10021 5.47281 9.04256 5.53046 8.92726 5.64576L5.64543 8.92759C5.53013 9.04289 5.47248 9.10054 5.43125 9.16782C5.3947 9.22747 5.36776 9.2925 5.35143 9.36052C5.33301 9.43725 5.33301 9.51878 5.33301 9.68184Z" stroke="#EAAA08" stroke-width="1.5" stroke-linecap="round" stroke-linejoin="round"/>
</g>
<defs>
<clipPath id="clip0_134_9750">
<rect width="16" height="16" fill="white" transform="translate(4 4)"/>
</clipPath>
</defs>
</svg>
